PathFileType	4	(X/Y/Z)	pose_F01_0-96.trc
DataRate	CameraRate	NumFrames	NumMarkers	Units	OrigDataRate	OrigDataStartFrame	OrigNumFrames
30	30	6	21	m	30	48	96
Frame#	Time	CHip			RHip			RKnee			RAnkle			RBigToe			RSmallToe			RHeel			LHip			LKnee			LAnkle			LBigToe			LSmallToe			LHeel			Neck			Nose			RShoulder			RElbow			RWrist			LShoulder			LElbow			LWrist			
		X1	Y1	Z1	X2	Y2	Z2	X3	Y3	Z3	X4	Y4	Z4	X5	Y5	Z5	X6	Y6	Z6	X7	Y7	Z7	X8	Y8	Z8	X9	Y9	Z9	X10	Y10	Z10	X11	Y11	Z11	X12	Y12	Z12	X13	Y13	Z13	X14	Y14	Z14	X15	Y15	Z15	X16	Y16	Z16	X17	Y17	Z17	X18	Y18	Z18	X19	Y19	Z19	X20	Y20	Z20	X21	Y21	Z21	
48	1.6	-0.19246407344323985	1.8668585330678047	-0.5676911740455078	-0.20880932878684952	1.8651558120223795	-0.5107033328207103	-0.25179661682566384	1.709956952877507	-0.5421169526631924	-0.23307240449576366	1.679711802934624	-0.48916688756446214							-0.17173175254793974	1.6640510286997698	-0.44059580847018714	-0.17808867257463737	1.8701220775815566	-0.6258870722786812	-0.20794093840753422	1.707418451345131	-0.5885012911676089	-0.1720379948135597	1.579257643822154	-0.507793484401239	-0.19944268507464288	1.5400646802332383	-0.5454472757441833	-0.18195287798718043	1.5491778707356596	-0.5602177823157216	-0.17057929316580295	1.5846655190560066	-0.503711609649069	-0.18770941571473473	2.0292010062787833	-0.581402057855276	-0.21732225569490773	2.0964244673746704	-0.6051810259924767	-0.21228421025132763	2.026300360035527	-0.4995746164614877	-0.23898009662688133	1.9443474056393284	-0.5131802712986117	-0.23437206995151505	2.0121590824811992	-0.5860486487073884	-0.1587796694222888	2.033651550103501	-0.6657521614166738	-1.4477714062445477	1.8663989234795284	0.6696882308404074	-0.21002751427159783	2.02054575496446	-0.6466894031679505
49	1.6333333333333333	-0.19901465358378856	1.8527126840894574	-0.5621769597492293	-0.2149421297812566	1.850960707365899	-0.5138821808231083	-0.2497903554231921	1.6976647757145082	-0.5430061342150998	-0.23307240449576366	1.679711802934624	-0.48916688756446214							-0.17173175254793974	1.6640510286997698	-0.44059580847018714	-0.17874520405891356	1.8551548576314754	-0.6181790794885573	-0.211245839811872	1.7033340187152102	-0.5889908143750014	-0.1687738361905986	1.5784486634166717	-0.5070267081677882	-0.19872391255686755	1.5395221580980392	-0.5458796754059201	-0.18299048946718252	1.5494253430678193	-0.5540360164464592	-0.165319779784508	1.5841757483517926	-0.4958232089229699	-0.19235078014825677	2.0209624296703463	-0.5765406910662128	-0.22751820401634973	2.0886488443800895	-0.6080521090338119	-0.21781197402981095	2.019889165621783	-0.4985115144038912	-0.2486633598206842	1.9359812152719402	-0.5088333887252866	-0.2437605225150055	1.9942878089664415	-0.585579277859722	-0.16173434413589136	2.0248270280613183	-0.6544959085591658	-0.17604400167958617	1.9366169177393737	-0.6585221922000656	-0.21307959819013764	1.986107884311443	-0.6394369458816503
50	1.6666666666666667	-0.20059713964163817	1.8690846764581879	-0.570823089113716	-0.2158694161937813	1.866359262046065	-0.5192304932193881	-0.24867432105682508	1.7128418584014022	-0.5413716043390907	-0.23307240449576366	1.679711802934624	-0.48916688756446214							-0.17173175254793974	1.6640510286997698	-0.44059580847018714	-0.18030643310212932	1.8723717649757277	-0.626949914099673	-0.21138557118809154	1.7142636437365903	-0.6028473396356965	-0.176489485044408	1.5758806331329007	-0.5068200263117942	-0.20215183946677714	1.5380058770630354	-0.545936203882434	-0.18966379211370502	1.5465970106649558	-0.5547171813597139	-0.17639523716507985	1.5780162551047838	-0.5002135163488725	-0.19800564036466592	2.035974028761105	-0.5806530101042761	-0.22922223136041556	2.1015763422050227	-0.6075413920519377	-0.22467100355265382	2.0286881350792756	-0.5052422714176104	-0.2509719483641617	1.9419504338440148	-0.5015940703051545	-0.2561353896661664	2.006508743579507	-0.5836991011849948	-0.17125832434396057	2.0403003617360516	-0.662062494441779	-1.4219977503121155	1.8668618664066536	0.6320607276271268	-0.2093266547236538	2.039056338278652	-0.6490722786565102
51	1.7	-0.19990175282071226	1.8831887233727795	-0.5724608414738195	-0.21832402862890593	1.8804730357488657	-0.5219555519070437	-0.2418439290279444	1.7232811250981117	-0.5232847835737515	-0.23307240449576366	1.679711802934624	-0.48916688756446214							-0.17173175254793974	1.6640510286997698	-0.44059580847018714	-0.17945683306378266	1.8856372020572836	-0.6283926231543406	-0.20882602402587555	1.7254870165013254	-0.6192447600215804	-0.19141369358131607	1.5766574224185417	-0.5256221699182216	-0.2244302127458274	1.5268859113496231	-0.5511005874948197	-0.21058614556119593	1.5374316449785357	-0.5656391786438242	-0.1866269894732749	1.570584718883766	-0.4998383018579196	-0.19970823587004236	2.0519132756934475	-0.5806420800338074	-0.2337406356399844	2.1206284678096194	-0.6086551821410455	-0.23198350274749951	2.0472533258913126	-0.5158788902243178	-0.26504162023114314	1.9612478650096017	-0.523691490643093	-0.26470206306228206	2.0278578881980365	-0.598570428659783	-0.16645883588198473	2.0589148371074986	-0.6487879947138123	-1.413765580400932	1.8807236520708432	0.616159649529213	-0.23089043810547485	2.035185012251956	-0.644531832816991
52	1.7333333333333334	-0.2019016746614742	1.8906013556155612	-0.5803724221373868	-0.21926906412124203	1.8879629018508985	-0.5266341033556281	-0.23501353699906374	1.7337203917948212	-0.5051979628084124	-0.23307240449576366	1.679711802934624	-0.48916688756446214							-0.17173175254793974	1.6640510286997698	-0.44059580847018714	-0.17931715332519713	1.8928418873606019	-0.6383897671412914	-0.20037592735852205	1.7382110878994372	-0.6125404614326827	-0.2030077245749202	1.5722494365911688	-0.5702015653547696	-0.24326142144575666	1.517823796599398	-0.5921825911891329	-0.2290383074006071	1.5224936488599072	-0.6110548188093808	-0.19564890116829337	1.5563304863649607	-0.5498473107265228	-0.2043574680589869	2.057050362445579	-0.5978076843128463	-0.23910434194410635	2.126173962906347	-0.6274112223675439	-0.23714143024204873	2.0535826961497428	-0.5257552379727098	-0.2713700065434468	1.9750750615451056	-0.5457737032339929	-0.25782816516848533	2.034345247717524	-0.6135975074626748	-0.16938705641449453	2.06396573440496	-0.6704791630039106	-0.18911711525798697	1.979972332743793	-0.6935363674683945	-0.21913969926431165	2.0408299969877524	-0.6725386108112642
53	1.7666666666666666	-0.20640489861166417	1.885041255213951	-0.5837276941720317	-0.22590189039452632	1.8833521028208682	-0.52818317946009	-0.24229953918590072	1.722434225292455	-0.5181254119533545	-0.23307240449576366	1.679711802934624	-0.48916688756446214							-0.17173175254793974	1.6640510286997698	-0.44059580847018714	-0.18294122430471357	1.8869017942966677	-0.6386980386742067	-0.20212371501888254	1.7230335378564534	-0.6134525334105282	-0.20366885336774979	1.5633810689064693	-0.5735517529520191	-0.2437686235534147	1.5183953803172527	-0.5961879181280678	-0.2275349213969204	1.5235673975383652	-0.6170406704983892	-0.1980738329291583	1.5510535292701593	-0.5471191500093692	-0.20321012251388645	2.056142483082808	-0.6032060138954614	-0.2360692872093574	2.124410415456514	-0.6350752556055244	-0.23209579816806566	2.0537404385378446	-0.5353736578325115	-0.2765529761937005	1.9769349827238873	-0.553496548121614	-0.2617931896552862	2.0365455482198294	-0.6180406381931042	-0.16906026490795598	2.060895242707812	-0.6785510004890845	-0.1870226004629197	1.9805669651745716	-0.6956782742277865	-0.2270065072858156	2.0364561150700293	-0.6699993628677072
